<?xml version="1.0" encoding="utf-8"?>
<!-- Svg Vector Icons : http://www.onlinewebfonts.com/icon -->
<!DOCTYPE svg PUBLIC "-//W3C//DTD SVG 1.1//EN" "http://www.w3.org/Graphics/SVG/1.1/DTD/svg11.dtd">
<svg version="1.1" xmlns="http://www.w3.org/2000/svg" xmlns:xlink="http://www.w3.org/1999/xlink" x="0px" y="0px" viewBox="0 0 256 256" enable-background="new 0 0 256 256" xml:space="preserve">
<metadata> Svg Vector Icons : http://www.onlinewebfonts.com/icon </metadata>
<g><g><path fill="#ffffff" d="M226.3,10H29.7C18.8,10,10,18.8,10,29.7v196.7c0,10.9,8.8,19.7,19.7,19.7h196.7c10.9,0,19.7-8.8,19.7-19.7V29.7C246,18.8,237.2,10,226.3,10z M204.7,193.7H51.3c-5,0-9.1-4.1-9.1-9.1c0-5,4.1-9.1,9.1-9.1h153.5c5,0,9.1,4.1,9.1,9.1C213.9,189.7,209.8,193.7,204.7,193.7z M204.7,138H51.3c-5,0-9.1-4.1-9.1-9.1c0-5,4.1-9.1,9.1-9.1h153.5c5,0,9.1,4.1,9.1,9.1C213.9,133.9,209.8,138,204.7,138z M204.7,80.5H51.3c-5,0-9.1-4.1-9.1-9.1c0-5.1,4.1-9.1,9.1-9.1h153.5c5,0,9.1,4.1,9.1,9.1C213.9,76.4,209.8,80.5,204.7,80.5z"/></g></g>
</svg>